:SAMPLES-PER-SECOND 30
:FULLY-SPECIFIED
:DEGREES
156
root  3.52944 39.2509 9.64239 -179.876 18.2226 176.251
RightUpLeg  -9.52237 -10.0188 -2.86577
RightLeg  28.6096 -4.25908 -2.77449
RightFoot  -9.90262 -0.177108 9.49433
RightToes  -1.74624e-010 0 -3.6325e-017
Spine  8.25238 -1.30763 -2.43325
Spine1  23.0746 -3.00281 4.49319
HEad  -7.11537 26.6896 -12.3976
LeftShoulder1  0.623431 -0.0828346 -10.0605
LeftArm  13.676 9.95187 -58.9668
LeftForeArm  123.479 -75.4538 -134.034
LeftHand  -1.93866 -3.18619 26.1096
RightShoulder  0.520991 -0.390067 9.45215
RightArm  4.82631 -19.0109 55.5866
RightForeArm  152.224 59.9951 161.202
RightHand  -0.441996 3.12657 -6.25615
LeftUpLeg  -19.4465 3.58349 2.52534
LeftLeg  38.2917 -9.37695 -7.43955
LeftFoot  2.28447 2.42012 -20.1227
LeftToes  3.7286e-011 -1.5702e-010 -9.70233e-012
157
root  2.94711 38.7382 9.6 178.651 19.982 175.694
RightUpLeg  -9.20634 -4.56018 -3.41619
RightLeg  30.6043 -9.34351 -6.16018
RightFoot  -14.7263 0.122803 6.8847
RightToes  -1.74624e-010 0 -3.6325e-017
Spine  7.74723 -0.956248 -1.56484
Spine1  24.6224 -1.70777 2.87223
HEad  -8.29422 26.3681 -12.554
LeftShoulder1  0.623166 0.00580625 -10.5428
LeftArm  14.6937 9.06371 -57.543
LeftForeArm  121.542 -75.9118 -131.987
LeftHand  -2.01119 -3.2131 26.9571
RightShoulder  0.472361 -0.713058 9.67201
RightArm  3.90869 -17.2819 55.4652
RightForeArm  151.927 60.1212 161.082
RightHand  -0.501876 3.33344 -6.91179
LeftUpLeg  -19.0869 2.55869 4.59356
LeftLeg  41.6977 -3.18321 -2.65093
LeftFoot  0.695398 1.64947 -15.6393
LeftToes  3.7286e-011 -1.5702e-010 -9.70233e-012
158
root  2.28218 38.4245 9.56981 177.415 22.2606 175.593
RightUpLeg  -9.04008 -0.219321 -4.28462
RightLeg  31.6964 -9.78933 -6.70974
RightFoot  -17.1122 0.314731 8.57414
RightToes  -1.74624e-010 0 -3.6325e-017
Spine  7.44916 -0.738279 -0.318712
Spine1  26.6648 -0.445187 0.717004
HEad  -10.1295 26.5631 -13.7842
LeftShoulder1  0.704429 -0.169082 -12.0317
LeftArm  14.4325 7.5472 -57.2962
LeftForeArm  111.308 -77.86 -120.198
LeftHand  -2.21258 -3.26833 29.3333
RightShoulder  0.512357 -0.550805 10.1396
RightArm  2.87976 -14.8194 55.9909
RightForeArm  150.862 61.75 159.744
RightHand  -0.605121 3.63619 -8.0267
LeftUpLeg  -17.8789 2.03567 6.98367
LeftLeg  43.2675 2.84793 3.22578
LeftFoot  0.292746 1.12607 -11.054
LeftToes  3.7286e-011 -1.5702e-010 -9.70233e-012
159
root  1.59608 38.3907 9.50278 177.01 23.4666 175.901
RightUpLeg  -8.86342 0.317984 -5.09886
RightLeg  31.3189 -8.5463 -5.82539
RightFoot  -16.9403 0.363193 9.75486
RightToes  -1.74624e-010 0 -3.6325e-017
Spine  7.47178 -0.824341 -0.169877
Spine1  27.5999 -0.381643 0.215512
HEad  -11.1125 27.2538 -14.9383
LeftShoulder1  0.869664 -0.756727 -13.4152
LeftArm  13.245 7.13555 -59.252
LeftForeArm  89.0453 -79.4935 -96.5587
LeftHand  -2.47273 -3.19373 32.8753
RightShoulder  0.622994 0.0114315 10.5424
RightArm  2.57857 -13.4449 57.229
RightForeArm  150.513 64.1075 157.698
RightHand  -0.692787 3.89978 -8.9079
LeftUpLeg  -16.7082 0.356004 9.14019
LeftLeg  42.5315 6.07991 6.32034
LeftFoot  0.0988205 0.70746 -7.06718
LeftToes  3.7286e-011 -1.5702e-010 -9.70233e-012
160
root  0.898139 38.5969 9.38442 177.278 23.4133 176.148
RightUpLeg  -8.58424 -0.614197 -6.13035
RightLeg  29.6188 -8.30211 -5.31688
RightFoot  -14.9713 0.21052 9.8485
RightToes  -1.74624e-010 0 -3.6325e-017
Spine  7.69409 -1.10369 -1.48116
Spine1  27.1764 -1.4162 1.50594
HEad  -10.9606 28.1809 -15.0646
LeftShoulder1  1.01328 -1.30424 -14.1535
LeftArm  12.4956 8.12188 -62.2556
LeftForeArm  69.5604 -79.3081 -78.56
LeftHand  -2.62886 -3.00404 35.5641
RightShoulder  0.731132 0.503015 11.1238
RightArm  3.5128 -13.7635 58.4948
RightForeArm  152.145 65.7181 156.302
RightHand  -0.741643 4.17742 -9.25516
LeftUpLeg  -15.7615 -1.94743 10.3548
LeftLeg  39.344 7.09473 6.57527
LeftFoot  0.463856 0.396757 -3.89736
LeftToes  3.7286e-011 -1.5702e-010 -9.70233e-012
161
root  0.151352 38.9136 9.22291 177.826 23.2185 176.002
RightUpLeg  -8.32427 -0.739465 -7.71465
RightLeg  26.8825 -8.16675 -4.71496
RightFoot  -12.2008 -0.00505144 10.8656
RightToes  -1.74624e-010 0 -3.6325e-017
Spine  7.75302 -1.37684 -3.25816
Spine1  26.3674 -2.47652 2.80584
HEad  -10.6444 29.0012 -14.4268
LeftShoulder1  1.04806 -1.39304 -14.5095
LeftArm  13.4136 9.56289 -64.2067
LeftForeArm  67.002 -79.1624 -78.5578
LeftHand  -2.61773 -3.03114 35.2969
RightShoulder  0.774465 0.57731 11.943
RightArm  5.42857 -15.0003 59.2462
RightForeArm  154.783 65.9347 156.363
RightHand  -0.756814 4.47703 -9.16916
LeftUpLeg  -14.5513 -3.60845 10.6323
LeftLeg  34.3293 6.51864 5.13823
LeftFoot  2.0426 0.544408 -4.64064
LeftToes  3.7286e-011 -1.5702e-010 -9.70233e-012
162
root  -0.66177 39.1808 9.00368 178.679 23.8316 175.676
RightUpLeg  -8.43635 -0.451478 -9.55214
RightLeg  23.8581 -7.31281 -3.77666
RightFoot  -9.82197 -0.232854 12.6084
RightToes  -1.74624e-010 0 -3.6325e-017
Spine  7.12425 -1.52976 -4.36544
Spine1  25.8444 -2.84904 2.94793
HEad  -10.7969 29.589 -13.8939
LeftShoulder1  1.01879 -1.22922 -14.6395
LeftArm  15.6229 10.7232 -64.4847
LeftForeArm  78.0672 -79.4086 -88.8512
LeftHand  -2.4664 -3.382 32.1279
RightShoulder  0.760029 0.405939 12.4535
RightArm  7.41844 -16.5131 59.7325
RightForeArm  156.336 65.1896 157.287
RightHand  -0.724895 4.61155 -8.68276
LeftUpLeg  -12.8825 -4.02843 10.4722
LeftLeg  28.7138 4.627 3.08567
LeftFoot  3.20939 1.36459 -10.8741
LeftToes  3.7286e-011 -1.5702e-010 -9.70233e-012
